<svg version="1.0" xmlns="http://www.w3.org/2000/svg" xmlns:xlink="http://www.w3.org/1999/xlink"
     viewBox="0 0 300.000000 250.000000"
     color-interpolation-filters="sRGB">


  <g fill="#f3c676" transform="translate(82.86000061035156,97.2450008392334)">
    <g>
      <g mask="url(#03a82d8d-5101-4841-aec8-97ab056ea375)">

        <g>
          <polyline x="0" y="0" fill="#f3c676" points="0,0 55.5099983215332,0 55.5099983215332,55.5099983215332, 0,0"
                    transform="translate(118.77000045776367, 0)"></polyline>
        </g>

        <g fill="#f3c676" transform="translate(0,5)">
          <g transform="scale(1)">
            <g>
              <path
                d="M42.31-33.93L42.31-11.58Q42.31-8.38 41.15-6.17 39.99-3.97 38.26-2.59 36.53-1.21 34.5-0.6 32.47 0 30.72 0L30.72 0 4.25 0 4.25-8.25 30.72-8.25Q32.4-8.25 33.21-9.11 34.02-9.97 34.02-11.58L34.02-11.58 34.02-18.6 4.25-18.6 4.25-26.91 34.02-26.91 34.02-33.86Q34.02-37.26 30.72-37.26L30.72-37.26 4.25-37.26 4.25-45.51 30.72-45.51Q32.85-45.51 34.53-44.97 36.21-44.43 37.5-43.53 38.78-42.62 39.7-41.45 40.63-40.28 41.2-38.99 41.77-37.71 42.04-36.39 42.31-35.07 42.31-33.93L42.31-33.93ZM77.5-45.51L86.33-45.51 57.6 0 48.75 0 77.5-45.51ZM106.89-45.51L106.89 0 98.61 0 98.61-37.26 91.15-37.26 91.15-45.51 106.89-45.51ZM168.53-26.47L168.53-19.04Q168.53-16.25 167.82-13.76 167.1-11.27 165.8-9.14 164.5-7.01 162.72-5.33 160.94-3.65 158.83-2.46 156.72-1.27 154.34-0.63 151.96 0 149.49 0L149.49 0 134.6 0Q132.09 0 129.71-0.63 127.33-1.27 125.22-2.46 123.11-3.65 121.34-5.33 119.56-7.01 118.27-9.14 116.99-11.27 116.27-13.76 115.56-16.25 115.56-19.04L115.56-19.04 115.56-26.47Q115.56-30.66 117.13-34.15 118.7-37.64 121.34-40.16 123.97-42.69 127.41-44.1 130.86-45.51 134.6-45.51L134.6-45.51 149.49-45.51Q151.96-45.51 154.34-44.88 156.72-44.24 158.83-43.05 160.94-41.86 162.72-40.18 164.5-38.5 165.8-36.37 167.1-34.25 167.82-31.75 168.53-29.26 168.53-26.47L168.53-26.47ZM160.21-19.04L160.21-26.47Q160.21-28.91 159.33-30.91 158.44-32.91 156.96-34.34 155.49-35.77 153.55-36.53 151.61-37.29 149.49-37.26L149.49-37.26 134.6-37.26Q132.54-37.29 130.59-36.55 128.64-35.8 127.13-34.39 125.62-32.98 124.72-30.96 123.81-28.95 123.81-26.47L123.81-26.47 123.81-19.04Q123.81-16.57 124.7-14.57 125.59-12.57 127.08-11.16 128.57-9.74 130.52-8.98 132.48-8.22 134.6-8.25L134.6-8.25 149.49-8.25Q151.93-8.25 153.91-9.06 155.9-9.87 157.29-11.3 158.69-12.73 159.45-14.71 160.21-16.69 160.21-19.04L160.21-19.04ZM156.63-32.5L156.63-32.5Q157.1-31.8 157.26-30.99 157.42-30.18 157.26-29.41 157.1-28.63 156.64-27.95 156.18-27.26 155.45-26.79L155.45-26.79 133.17-11.9Q132.63-11.49 132.06-11.33 131.49-11.17 130.89-11.17L130.89-11.17Q129.87-11.17 128.95-11.65 128.03-12.12 127.46-13.01L127.46-13.01Q126.98-13.71 126.83-14.52 126.67-15.33 126.81-16.11 126.95-16.88 127.4-17.57 127.84-18.25 128.57-18.73L128.57-18.73 150.92-33.61Q151.61-34.09 152.42-34.25 153.23-34.4 154.01-34.25 154.79-34.09 155.47-33.64 156.15-33.2 156.63-32.5Z"
                transform="translate(-4.25, 45.5099983215332)"></path>
            </g>
          </g>
        </g>


      </g>
    </g>
  </g>



  <mask id="03a82d8d-5101-4841-aec8-97ab056ea375">
    <g>
      <g fill="#f3c676">
        <polyline x="0" y="0"
                  points="0,0 55.5099983215332,0 55.5099983215332,55.5099983215332, 0,0"
                  transform="translate(118.77000045776367, 0)"></polyline>

      </g>
      <g transform="translate(0,5)" stroke="#000" stroke-width="3" fill="#000">
        <g transform="scale(1)">
          <g>
            <path
              d="M42.31-33.93L42.31-11.58Q42.31-8.38 41.15-6.17 39.99-3.97 38.26-2.59 36.53-1.21 34.5-0.6 32.47 0 30.72 0L30.72 0 4.25 0 4.25-8.25 30.72-8.25Q32.4-8.25 33.21-9.11 34.02-9.97 34.02-11.58L34.02-11.58 34.02-18.6 4.25-18.6 4.25-26.91 34.02-26.91 34.02-33.86Q34.02-37.26 30.72-37.26L30.72-37.26 4.25-37.26 4.25-45.51 30.72-45.51Q32.85-45.51 34.53-44.97 36.21-44.43 37.5-43.53 38.78-42.62 39.7-41.45 40.63-40.28 41.2-38.99 41.77-37.71 42.04-36.39 42.31-35.07 42.31-33.93L42.31-33.93ZM77.5-45.51L86.33-45.51 57.6 0 48.75 0 77.5-45.51ZM106.89-45.51L106.89 0 98.61 0 98.61-37.26 91.15-37.26 91.15-45.51 106.89-45.51ZM168.53-26.47L168.53-19.04Q168.53-16.25 167.82-13.76 167.1-11.27 165.8-9.14 164.5-7.01 162.72-5.33 160.94-3.65 158.83-2.46 156.72-1.27 154.34-0.63 151.96 0 149.49 0L149.49 0 134.6 0Q132.09 0 129.71-0.63 127.33-1.27 125.22-2.46 123.11-3.65 121.34-5.33 119.56-7.01 118.27-9.14 116.99-11.27 116.27-13.76 115.56-16.25 115.56-19.04L115.56-19.04 115.56-26.47Q115.56-30.66 117.13-34.15 118.7-37.64 121.34-40.16 123.97-42.69 127.41-44.1 130.86-45.51 134.6-45.51L134.6-45.51 149.49-45.51Q151.96-45.51 154.34-44.88 156.72-44.24 158.83-43.05 160.94-41.86 162.72-40.18 164.5-38.5 165.8-36.37 167.1-34.25 167.82-31.75 168.53-29.26 168.53-26.47L168.53-26.47ZM160.21-19.04L160.21-26.47Q160.21-28.91 159.33-30.91 158.44-32.91 156.96-34.34 155.49-35.77 153.55-36.53 151.61-37.29 149.49-37.26L149.49-37.26 134.6-37.26Q132.54-37.29 130.59-36.55 128.64-35.8 127.13-34.39 125.62-32.98 124.72-30.96 123.81-28.95 123.81-26.47L123.81-26.47 123.81-19.04Q123.81-16.57 124.7-14.57 125.59-12.57 127.08-11.16 128.57-9.74 130.52-8.98 132.48-8.22 134.6-8.25L134.6-8.25 149.49-8.25Q151.93-8.25 153.91-9.06 155.9-9.87 157.29-11.3 158.69-12.73 159.45-14.71 160.21-16.69 160.21-19.04L160.21-19.04ZM156.63-32.5L156.63-32.5Q157.1-31.8 157.26-30.99 157.42-30.18 157.26-29.41 157.1-28.63 156.64-27.95 156.18-27.26 155.45-26.79L155.45-26.79 133.17-11.9Q132.63-11.49 132.06-11.33 131.49-11.17 130.89-11.17L130.89-11.17Q129.87-11.17 128.95-11.65 128.03-12.12 127.46-13.01L127.46-13.01Q126.98-13.71 126.83-14.52 126.67-15.33 126.81-16.11 126.95-16.88 127.4-17.57 127.84-18.25 128.57-18.73L128.57-18.73 150.92-33.61Q151.61-34.09 152.42-34.25 153.23-34.4 154.01-34.25 154.79-34.09 155.47-33.64 156.15-33.2 156.63-32.5Z"
              transform="translate(-4.25, 45.5099983215332)"></path>
          </g>
        </g>
      </g>
      <g transform="translate(0,5)" fill="#f3c676">
        <g transform="scale(1)">
          <g>
            <path
              d="M42.31-33.93L42.31-11.58Q42.31-8.38 41.15-6.17 39.99-3.97 38.26-2.59 36.53-1.21 34.5-0.6 32.47 0 30.72 0L30.72 0 4.25 0 4.25-8.25 30.72-8.25Q32.4-8.25 33.21-9.11 34.02-9.97 34.02-11.58L34.02-11.58 34.02-18.6 4.25-18.6 4.25-26.91 34.02-26.91 34.02-33.86Q34.02-37.26 30.72-37.26L30.72-37.26 4.25-37.26 4.25-45.51 30.72-45.51Q32.85-45.51 34.53-44.97 36.21-44.43 37.5-43.53 38.78-42.62 39.7-41.45 40.63-40.28 41.2-38.99 41.77-37.71 42.04-36.39 42.31-35.07 42.31-33.93L42.31-33.93ZM77.5-45.51L86.33-45.51 57.6 0 48.75 0 77.5-45.51ZM106.89-45.51L106.89 0 98.61 0 98.61-37.26 91.15-37.26 91.15-45.51 106.89-45.51ZM168.53-26.47L168.53-19.04Q168.53-16.25 167.82-13.76 167.1-11.27 165.8-9.14 164.5-7.01 162.72-5.33 160.94-3.65 158.83-2.46 156.72-1.27 154.34-0.63 151.96 0 149.49 0L149.49 0 134.6 0Q132.09 0 129.71-0.63 127.33-1.27 125.22-2.46 123.11-3.65 121.34-5.33 119.56-7.01 118.27-9.14 116.99-11.27 116.27-13.76 115.56-16.25 115.56-19.04L115.56-19.04 115.56-26.47Q115.56-30.66 117.13-34.15 118.7-37.64 121.34-40.16 123.97-42.69 127.41-44.1 130.86-45.51 134.6-45.51L134.6-45.51 149.49-45.51Q151.96-45.51 154.34-44.88 156.72-44.24 158.83-43.05 160.94-41.86 162.72-40.18 164.5-38.5 165.8-36.37 167.1-34.25 167.82-31.75 168.53-29.26 168.53-26.47L168.53-26.47ZM160.21-19.04L160.21-26.47Q160.21-28.91 159.33-30.91 158.44-32.91 156.96-34.34 155.49-35.77 153.55-36.53 151.61-37.29 149.49-37.26L149.49-37.26 134.6-37.26Q132.54-37.29 130.59-36.55 128.64-35.8 127.13-34.39 125.62-32.98 124.72-30.96 123.81-28.95 123.81-26.47L123.81-26.47 123.81-19.04Q123.81-16.57 124.7-14.57 125.59-12.57 127.08-11.16 128.57-9.74 130.52-8.98 132.48-8.22 134.6-8.25L134.6-8.25 149.49-8.25Q151.93-8.25 153.91-9.06 155.9-9.87 157.29-11.3 158.69-12.73 159.45-14.71 160.21-16.69 160.21-19.04L160.21-19.04ZM156.63-32.5L156.63-32.5Q157.1-31.8 157.26-30.99 157.42-30.18 157.26-29.41 157.1-28.63 156.64-27.95 156.18-27.26 155.45-26.79L155.45-26.79 133.17-11.9Q132.63-11.49 132.06-11.33 131.49-11.17 130.89-11.17L130.89-11.17Q129.87-11.17 128.95-11.65 128.03-12.12 127.46-13.01L127.46-13.01Q126.98-13.71 126.83-14.52 126.67-15.33 126.81-16.11 126.95-16.88 127.4-17.57 127.84-18.25 128.57-18.73L128.57-18.73 150.92-33.61Q151.61-34.09 152.42-34.25 153.23-34.4 154.01-34.25 154.79-34.09 155.47-33.64 156.15-33.2 156.63-32.5Z"
              transform="translate(-4.25, 45.5099983215332)"></path>
          </g>
        </g>
      </g>
    </g>
  </mask>
</svg>
